<?xml version="1.0" encoding="utf-8"?>
<!-- Generator: Adobe Illustrator 23.1.1, SVG Export Plug-In . SVG Version: 6.00 Build 0)  -->
<svg version="1.1" id="Layer_1" xmlns="http://www.w3.org/2000/svg" xmlns:xlink="http://www.w3.org/1999/xlink" x="0px" y="0px"
	 viewBox="0 0 83 92" style="enable-background:new 0 0 83 92;" xml:space="preserve">
<style type="text/css">
	.st0{fill:#DE3831;}
</style>
<g>
	<g>
		<path class="st0" d="M74.9,29.2c-0.6-0.4-1.7-0.8-4.4-2.1c-0.1-3.7-1.2-5-2.4-5.8c-1.2-0.9-3.3-1.7-3.3-1.7
			c0.2-1.1,0.7-5.3-2.4-8.9C59.2,7,53,5.6,44.3,6.4c-0.5-0.2-5.6-2.1-12.3-1.3c-5.5,0.7-10.4,3.2-15,7.2c-0.1,0.1-11.5,9.5-7.5,22.9
			c-0.6,1.2-8.5,19,8,27.6c0.4,0.6,3.3,5.7,6.8,8.1c0.1,0.1,13.9,11,15.1,15.4v0.2l0.2-0.1c0.1,0,6.5-2.7,2.1-15.2
			c1.9,2.1,8,9,9.7,16.1v0.2l0.2-0.1c0,0,4-2.4,4.5-8.7c0.9-0.5,8-4.9,6.9-13.6c0,0,3.9,3.1,7.1,1.9c0.1,0,3.3-0.9,4.6-3.9
			c0.9-2,0.8-4.3-0.2-7c0.4-0.5,1.5-3-1.5-8.2c0.9-1.8,1.2-4.3,1.3-7c0.8-0.6,3.1-2.4,3.6-4.6C79,31.6,74.9,29.2,74.9,29.2z
			 M52.4,82.9c-0.6-1.5-3.1-7.1-8.5-13.3c-0.1-0.1-11.9-11.9-9.1-28.1c0.8,2.4,3.9,10.3,12.6,19.8C47.5,61.4,56.5,71.6,52.4,82.9z
			 M71.4,63.9c0,0-0.8,0.9-2.4,1.1c-1.5,0.1-4.4-1.3-4.4-1.3c-3.6-1.9-4.4-2-5.3-2h-0.2l0.1,0.4c2,5,0.8,9.7-3.6,14
			c0.5-2.1,1.1-9.3-9.3-20.5c-0.1-0.1-16.4-16.5-7.2-29.7l0.4-0.6l-0.6,0.2c-0.1,0-1.5,0.7-3,2.4c-0.5-0.4-2.5-2-3-4.5
			c-0.4-1.8,0.1-3.7,1.4-5.6c0,0,1.1-1.4,3-2.1c0.7-0.2,1.4-0.4,2.1-0.4c1.9,0,3.8,0.9,5.8,2.6l0.9,0.8l-0.7-1.1c0,0-3-4.6-8-3.9
			c-0.5,0.1-0.8,0.1-1.3,0.4c-0.6,0.2-1.2,0.5-1.9,0.8c-0.1,0.1-3.3,1.9-4.2,5.6c-0.6,2.7,0.4,5.8,2.8,9.1
			c-1.2,1.2-10.3,10.7-5.3,23.7l0.4-0.1c0-0.1-2.3-11.7,5.2-20.4c-1.4,3.9-6.1,20.2,5,34.1c-1.3-0.6-4.7-2.1-8.1-5.2
			c-3.9-3.7-8.3-10.2-7.7-20.8l0.1-0.9l-0.4,0.8c-0.1,0.1-6.6,14,10.7,26.3c0.1,0.1,9.8,6.2,6.8,15.1c-0.9-1.1-5.6-6.2-13.2-12.5
			c-0.1-0.1-8.2-5.8-9.8-15.9c-1.2-7.1,1.1-14.5,6.6-22.2l0.7-0.9l-0.9,0.7C23,31.5,9.4,42,15.2,59c-1.4-1.4-5.6-6.1-5.7-12.9
			c-0.2-7.4,3.9-14.8,12.1-22.5l0.5-0.5l-0.6,0.1c-0.2,0-5.1,1.2-10.3,9.1c-0.4-2.1-1.2-11.4,8-19c0.1,0,5.8-5,13.4-6.1
			c6.5-0.9,12.3,1.3,17.3,6.4l0.5,0.5l-0.1-0.6c0-0.1-0.7-3.1-3.8-5.6c1.9-0.1,9.7-0.6,13.6,3.4c2,2,2.8,4,2.4,7.6
			c0,0-3.3-0.9-5.1,0.8c0,0-16.6-5.9-16.1,17c0.1,5.5,3.1,10.4,9,14.7c0,0,3.7,2.4,6.5,6.1l0.7,0.9L57,57.3c-1.5-3.9-3.9-5.9-4-6.1
			c-6.3-5.1-9.4-10.6-9.3-16.3c0.5-18.7,14.1-13.5,14.1-13.5S61,19,67.2,23c-1.1,0.6-1.7,1.5-2,2.3c-1.1,1.8-0.5,2-0.1,2.4
			c0.4,0.4,1.1-0.5,1.1-0.5c0.9-1.2,1.5-0.7,2.1-0.9c0.1,1.1-0.1,1.4-0.1,1.4v0.1h0.1c1.1,0.7,4.6,1.4,4.7,2.3c0,0.1,0,0.1,0,0.1
			s-1.3,1.2-2.4,1.2l-3.1,0.1c0,0-0.1,0-0.4,0c-0.8,0.1-1.3,0.5-1.4,1.1v0.1l5.6,3.1l0.1,2.7c-0.1,0.2-0.9,1.7-2.8,1.8
			c0,0-1.4,0-3.2-1.7l0,0c0,0-1.4,0-2.7,0.2c-0.8,0.1-3,0.6-3.4,2.4l-2.1,8.7c0,0.1-0.2,1.8,0.9,2.7l6.3,6.3c0,0,1.2,0.8,2.5,0.7
			c0.4,0,0.7-0.1,1.1-0.4l3.3-2c0,0,0.4-0.4,0.7-0.4c0.4,0,0.6,0.1,0.8,0.5C72.7,57.3,74.2,61.1,71.4,63.9z M64.7,53.7
			c0.8-2.4,1.2,0.2,1.2,0.2c0.2,1.7,0.4,2,0.4,2c0.1,0.1,0.2,0.2,0.4,0.2c0.5,0,1.4-0.9,1.7-1.2l0,0c0.2-0.5,0.7-0.6,1.1-0.6
			c0.2,0,0.5,0,0.5,0c0.2,0.1,0.6,0.1,0.8,0.1c0.6,0,0.8-0.4,0.9-0.5c0.2-0.4,0.1-0.7,0-1.8c-0.1-1.5,0.8-0.1,0.8-0.1
			c0.5,0.9,0.5,1.9,0.2,2.5c-0.2,0.6-0.6,0.7-0.6,0.7l-5.1,2.5c-0.2,0.1-0.6,0.1-0.8,0.1c-0.6,0-1.2-0.1-1.4-0.4
			c-0.4-0.4-0.4-0.9-0.4-1.1C64.4,55.4,64.3,54.7,64.7,53.7z M76.3,34.8c-0.1,2.3-2.1,4-2.3,4h-0.1c-0.4,0-0.8-0.4-0.9-0.5l-0.4-2.6
			c-0.1-0.6,0.1-0.8,0.1-0.8c0.8-0.8,1.3-3,1.3-3.1s0-0.4,0.1-0.4c0.1,0,0.4,0.1,0.6,0.2l0,0C76.6,32.9,76.3,34.8,76.3,34.8z"/>
		<path class="st0" d="M60.5,29.8c0,0,0.9,0,0.9-0.6c0-0.6,0.4-1.1-1.7-1.9c-1.9-0.8-6.1-2.4-7.8,2.6c0,0,2.6,2.5,5.9-0.4
			C57.9,29.6,58.7,29.1,60.5,29.8z"/>
	</g>
</g>
</svg>
